<?xml version="1.0" encoding="utf-8"?>
<!-- Generator: Adobe Illustrator 23.0.2, SVG Export Plug-In . SVG Version: 6.00 Build 0)  -->
<svg version="1.1" id="Layer_1" xmlns="http://www.w3.org/2000/svg" xmlns:xlink="http://www.w3.org/1999/xlink" x="0px" y="0px"
	 viewBox="0 0 12 12" style="enable-background:new 0 0 12 12;" xml:space="preserve">
<style type="text/css">
	.st0{fill:#663D15;}
</style>
<path class="st0" d="M11.1,2c0.2,0.2,0.2,0.4,0,0.6c0,0,0,0,0,0L8,5.7C7.8,5.9,7.8,6.1,8,6.3c0,0,0,0,0,0l3.1,3.1
	c0.2,0.2,0.2,0.4,0,0.6c0,0,0,0,0,0L10,11.1c-0.2,0.2-0.4,0.2-0.6,0L6.3,8C6.1,7.8,5.9,7.8,5.7,8l-3.1,3.1c-0.2,0.2-0.4,0.2-0.6,0
	L0.9,10c-0.2-0.2-0.2-0.4,0-0.6c0,0,0,0,0,0L4,6.3c0.2-0.2,0.2-0.4,0-0.6c0,0,0,0,0,0L0.9,2.6C0.7,2.4,0.7,2.2,0.8,2c0,0,0,0,0,0
	L2,0.9c0.2-0.2,0.4-0.2,0.6,0L5.7,4c0.2,0.2,0.4,0.2,0.6,0c0,0,0,0,0,0l3.1-3.1c0.2-0.2,0.4-0.2,0.6,0L11.1,2z"/>
</svg>
