<?xml version="1.0" encoding="utf-8"?>
<!-- Generator: Adobe Illustrator 23.0.2, SVG Export Plug-In . SVG Version: 6.00 Build 0)  -->
<svg version="1.1" id="Layer_1" xmlns="http://www.w3.org/2000/svg" xmlns:xlink="http://www.w3.org/1999/xlink" x="0px" y="0px"
	 viewBox="0 0 15 15" style="enable-background:new 0 0 15 15;" xml:space="preserve">
<path d="M14.8,12.5c-0.2-0.6-0.6-1.2-1.1-1.5c-1.1-0.6-2.2-1.1-3.4-1.4c-0.2-0.2-0.5-0.3-0.7-0.4C9.4,9,9.2,8.8,9.2,8.5
	c0-0.1,0-0.3,0-0.4c0.9-1.4,1.3-2.9,1.3-4.5c0.2-1.5-0.8-2.8-2.2-3c-0.3,0-0.5,0-0.8,0c-1.4-0.3-2.8,0.7-3,2.1c0,0.3,0,0.6,0,0.9
	c0,1.7,0.6,3.3,1.5,4.6v0.3C6,8.8,5.8,9,5.6,9.1C5.4,9.3,5.1,9.4,4.8,9.5c-1.2,0.3-2.3,0.8-3.4,1.4c-0.5,0.4-0.9,1-1.1,1.6
	S0,13.8,0,14.5h15C15.1,13.8,15,13.1,14.8,12.5z"/>
</svg>
